# xmcd
#
# Track frame offsets: 
#        150
#        11418
#        22639
#        36787
#        54074
#        75603
#        91372
#        105734
#        117154
#        129433
#        144248
#        175599
#
# Disc length: 2502 seconds
#
# Revision: 0
# Processed by: cddbd v1.5.2PL0 Copyright (c) Steve Scherf et al.
# Submitted via: ExactAudioCopy v0.99pb1
#
DISCID=7d09c40c
DTITLE=Schütze and Stückle - Leave the blues behind
DYEAR=1900
DGENRE=Blues
TTITLE0=Sugaree
TTITLE1=Back to the Ruth
TTITLE2=Leave the blues behind
TTITLE3=These boots are made for walking
TTITLE4=Devil on my trail
TTITLE5=West Texas moon
TTITLE6=Cinzia
TTITLE7=The train carried my girl from town
TTITLE8=Lovesick blues
TTITLE9=Walk on boy
TTITLE10=I´ve been down
TTITLE11=Don´t let me be
EXTD=
EXTT0=
EXTT1=
EXTT2=
EXTT3=
EXTT4=
EXTT5=
EXTT6=
EXTT7=
EXTT8=
EXTT9=
EXTT10=
EXTT11=
PLAYORDER=
